<svg width="17" height="16" viewBox="0 0 17 16" fill="none" xmlns="http://www.w3.org/2000/svg">
<path d="M5.8335 3.83331C5.56016 3.83331 5.3335 3.60665 5.3335 3.33331V1.33331C5.3335 1.05998 5.56016 0.833313 5.8335 0.833313C6.10683 0.833313 6.3335 1.05998 6.3335 1.33331V3.33331C6.3335 3.60665 6.10683 3.83331 5.8335 3.83331Z" fill="#084DD3"/>
<path d="M11.1665 3.83331C10.8932 3.83331 10.6665 3.60665 10.6665 3.33331V1.33331C10.6665 1.05998 10.8932 0.833313 11.1665 0.833313C11.4398 0.833313 11.6665 1.05998 11.6665 1.33331V3.33331C11.6665 3.60665 11.4398 3.83331 11.1665 3.83331Z" fill="#084DD3"/>
<path d="M6.16667 9.66667C6.08 9.66667 5.99333 9.64668 5.91333 9.61335C5.82667 9.58001 5.76 9.53333 5.69333 9.47333C5.57333 9.34667 5.5 9.18 5.5 9C5.5 8.91334 5.52 8.82667 5.55333 8.74667C5.58667 8.66667 5.63333 8.59334 5.69333 8.52668C5.76 8.46668 5.82667 8.42 5.91333 8.38666C6.15333 8.28666 6.45333 8.34001 6.64 8.52668C6.76 8.65334 6.83333 8.82667 6.83333 9C6.83333 9.04 6.82667 9.08668 6.82 9.13335C6.81333 9.17335 6.8 9.21334 6.78 9.25334C6.76667 9.29334 6.74667 9.33334 6.72 9.37334C6.7 9.40667 6.66667 9.44 6.64 9.47333C6.51333 9.59333 6.34 9.66667 6.16667 9.66667Z" fill="#084DD3"/>
<path d="M8.50016 9.66664C8.4135 9.66664 8.32683 9.64665 8.24683 9.61332C8.16016 9.57999 8.0935 9.5333 8.02683 9.4733C7.90683 9.34664 7.8335 9.17998 7.8335 8.99998C7.8335 8.91331 7.8535 8.82664 7.88683 8.74664C7.92016 8.66664 7.96683 8.59332 8.02683 8.52665C8.0935 8.46665 8.16016 8.41997 8.24683 8.38663C8.48683 8.27997 8.78683 8.33998 8.9735 8.52665C9.0935 8.65332 9.16683 8.82664 9.16683 8.99998C9.16683 9.03998 9.16016 9.08665 9.1535 9.13332C9.14683 9.17332 9.13349 9.21331 9.11349 9.25331C9.10016 9.29331 9.08016 9.33331 9.0535 9.37331C9.0335 9.40664 9.00016 9.43997 8.9735 9.4733C8.84683 9.5933 8.6735 9.66664 8.50016 9.66664Z" fill="#084DD3"/>
<path d="M10.8332 9.66664C10.7465 9.66664 10.6598 9.64665 10.5798 9.61332C10.4932 9.57999 10.4265 9.5333 10.3598 9.4733C10.3332 9.43997 10.3065 9.40664 10.2798 9.37331C10.2532 9.33331 10.2332 9.29331 10.2198 9.25331C10.1998 9.21331 10.1865 9.17332 10.1798 9.13332C10.1732 9.08665 10.1665 9.03998 10.1665 8.99998C10.1665 8.82664 10.2398 8.65332 10.3598 8.52665C10.4265 8.46665 10.4932 8.41997 10.5798 8.38663C10.8265 8.27997 11.1198 8.33998 11.3065 8.52665C11.4265 8.65332 11.4998 8.82664 11.4998 8.99998C11.4998 9.03998 11.4932 9.08665 11.4865 9.13332C11.4798 9.17332 11.4665 9.21331 11.4465 9.25331C11.4332 9.29331 11.4132 9.33331 11.3865 9.37331C11.3665 9.40664 11.3332 9.43997 11.3065 9.4733C11.1798 9.5933 11.0065 9.66664 10.8332 9.66664Z" fill="#084DD3"/>
<path d="M6.16667 12C6.08 12 5.99333 11.98 5.91333 11.9467C5.83333 11.9133 5.76 11.8666 5.69333 11.8066C5.57333 11.68 5.5 11.5066 5.5 11.3333C5.5 11.2466 5.52 11.16 5.55333 11.08C5.58667 10.9933 5.63333 10.92 5.69333 10.86C5.94 10.6133 6.39333 10.6133 6.64 10.86C6.76 10.9867 6.83333 11.16 6.83333 11.3333C6.83333 11.5066 6.76 11.68 6.64 11.8066C6.51333 11.9266 6.34 12 6.16667 12Z" fill="#084DD3"/>
<path d="M8.50016 12C8.32683 12 8.1535 11.9266 8.02683 11.8066C7.90683 11.68 7.8335 11.5066 7.8335 11.3333C7.8335 11.2466 7.8535 11.16 7.88683 11.08C7.92016 10.9933 7.96683 10.92 8.02683 10.86C8.2735 10.6133 8.72683 10.6133 8.9735 10.86C9.0335 10.92 9.08016 10.9933 9.11349 11.08C9.14683 11.16 9.16683 11.2466 9.16683 11.3333C9.16683 11.5066 9.0935 11.68 8.9735 11.8066C8.84683 11.9266 8.6735 12 8.50016 12Z" fill="#084DD3"/>
<path d="M10.8332 12C10.6598 12 10.4865 11.9267 10.3598 11.8067C10.2998 11.7467 10.2532 11.6733 10.2198 11.5867C10.1865 11.5067 10.1665 11.42 10.1665 11.3333C10.1665 11.2467 10.1865 11.16 10.2198 11.08C10.2532 10.9933 10.2998 10.92 10.3598 10.86C10.5132 10.7067 10.7465 10.6333 10.9598 10.68C11.0065 10.6867 11.0465 10.7 11.0865 10.72C11.1265 10.7333 11.1665 10.7533 11.2065 10.78C11.2398 10.8 11.2732 10.8333 11.3065 10.86C11.4265 10.9867 11.4998 11.16 11.4998 11.3333C11.4998 11.5067 11.4265 11.68 11.3065 11.8067C11.1798 11.9267 11.0065 12 10.8332 12Z" fill="#084DD3"/>
<path d="M14.1668 6.56H2.8335C2.56016 6.56 2.3335 6.33333 2.3335 6.06C2.3335 5.78666 2.56016 5.56 2.8335 5.56H14.1668C14.4402 5.56 14.6668 5.78666 14.6668 6.06C14.6668 6.33333 14.4402 6.56 14.1668 6.56Z" fill="#084DD3"/>
<path d="M11.1667 15.1666H5.83333C3.4 15.1666 2 13.7666 2 11.3333V5.66665C2 3.23331 3.4 1.83331 5.83333 1.83331H11.1667C13.6 1.83331 15 3.23331 15 5.66665V11.3333C15 13.7666 13.6 15.1666 11.1667 15.1666ZM5.83333 2.83331C3.92667 2.83331 3 3.75998 3 5.66665V11.3333C3 13.24 3.92667 14.1666 5.83333 14.1666H11.1667C13.0733 14.1666 14 13.24 14 11.3333V5.66665C14 3.75998 13.0733 2.83331 11.1667 2.83331H5.83333Z" fill="#084DD3"/>
</svg>
