<svg width="44" height="44" viewBox="0 0 44 44" fill="none" xmlns="http://www.w3.org/2000/svg">
<path d="M32.6563 15.1855C32.062 12.81 30.6911 10.7011 28.7614 9.19373C26.8316 7.68636 24.4536 6.8669 22.0049 6.86548C19.5561 6.86406 17.1772 7.68075 15.2456 9.18588C13.3141 10.691 11.9408 12.7983 11.3438 15.1731C8.52754 15.4374 5.92135 16.7764 4.06657 18.912C2.21179 21.0476 1.25098 23.8157 1.38371 26.6412C1.51645 29.4666 2.73253 32.1324 4.77935 34.0847C6.82617 36.037 9.54641 37.1258 12.375 37.125H16.5C16.8647 37.125 17.2144 36.9801 17.4723 36.7222C17.7302 36.4644 17.875 36.1146 17.875 35.75C17.875 35.3853 17.7302 35.0356 17.4723 34.7777C17.2144 34.5198 16.8647 34.375 16.5 34.375H12.375C11.2916 34.3781 10.2182 34.1679 9.21605 33.7562C8.2139 33.3445 7.30266 32.7395 6.53434 31.9756C4.98265 30.4329 4.10734 28.3371 4.10096 26.149C4.09457 23.961 4.95765 21.86 6.50031 20.3083C8.04297 18.7567 10.1389 17.8813 12.3269 17.875C12.6797 17.9015 13.0298 17.7961 13.3093 17.5791C13.5888 17.3621 13.7777 17.0491 13.8394 16.7007C14.1194 14.7373 15.0983 12.9408 16.5964 11.6412C18.0945 10.3415 20.0112 9.62602 21.9945 9.62602C23.9778 9.62602 25.8945 10.3415 27.3926 11.6412C28.8907 12.9408 29.8697 14.7373 30.1496 16.7007C30.2216 17.037 30.408 17.3379 30.677 17.5521C30.9461 17.7662 31.2812 17.8803 31.625 17.875C33.8131 17.875 35.9115 18.7442 37.4587 20.2913C39.0058 21.8385 39.875 23.9369 39.875 26.125C39.875 28.313 39.0058 30.4114 37.4587 31.9586C35.9115 33.5058 33.8131 34.375 31.625 34.375H27.5C27.1353 34.375 26.7856 34.5198 26.5278 34.7777C26.2699 35.0356 26.125 35.3853 26.125 35.75C26.125 36.1146 26.2699 36.4644 26.5278 36.7222C26.7856 36.9801 27.1353 37.125 27.5 37.125H31.625C34.4329 37.0956 37.1233 35.9934 39.1448 34.0444C41.1663 32.0954 42.3659 29.447 42.4978 26.642C42.6296 23.8371 41.6837 21.0879 39.854 18.9578C38.0242 16.8277 35.4491 15.4781 32.6563 15.1855Z" fill="#4745D2"/>
<path d="M27.9031 27.0971C28.1624 27.3475 28.5097 27.4861 28.8702 27.483C29.2308 27.4799 29.5756 27.3353 29.8306 27.0803C30.0855 26.8254 30.2301 26.4805 30.2332 26.12C30.2364 25.7595 30.0978 25.4122 29.8473 25.1528L22.9723 18.2778C22.7145 18.0201 22.3648 17.8752 22.0002 17.8752C21.6356 17.8752 21.2859 18.0201 21.0281 18.2778L14.1531 25.1528C13.9026 25.4122 13.764 25.7595 13.7671 26.12C13.7703 26.4805 13.9149 26.8254 14.1698 27.0803C14.4248 27.3353 14.7696 27.4799 15.1301 27.483C15.4907 27.4861 15.838 27.3475 16.0973 27.0971L20.6252 22.5692V39.875C20.6252 40.2396 20.7701 40.5894 21.0279 40.8472C21.2858 41.1051 21.6355 41.25 22.0002 41.25C22.3649 41.25 22.7146 41.1051 22.9725 40.8472C23.2303 40.5894 23.3752 40.2396 23.3752 39.875V22.5692L27.9031 27.0971Z" fill="#4745D2"/>
</svg>
