<svg width="212" height="36" viewBox="0 0 212 36" fill="none" xmlns="http://www.w3.org/2000/svg">
<g clip-path="url(#clip0_3203_944)">
<path d="M36 6.66965C35.9972 4.18548 33.9842 2.17247 31.5 2.16965H4.5C2.01583 2.17247 0.00282505 4.18548 0 6.66965V23.3839C0.00282505 25.8681 2.01583 27.8811 4.5 27.8839H7.07143C7.26447 27.8839 7.44748 27.9706 7.56958 28.1203C7.69169 28.2697 7.74003 28.4662 7.70142 28.6555L6.68126 33.7604L17.7005 27.9605C17.7925 27.9109 17.8955 27.8846 18 27.8839H31.5C33.9842 27.8811 35.9972 25.8681 36 23.3839V6.66965Z" fill="#E54737"/>
<path d="M22.7359 10.2982L15.7821 15.7376L13.4868 12.8955C13.0135 12.307 12.1381 12.2079 11.5334 12.6673C10.9286 13.1282 10.8219 13.9765 11.2967 14.565L14.4612 18.482C14.6901 18.7658 15.0289 18.9505 15.3985 18.991C15.4511 18.997 15.5037 19 15.5563 19C15.8733 19 16.1811 18.8949 16.4286 18.7012L24.4806 12.4046C25.0807 11.9346 25.1735 11.0849 24.6925 10.5039C24.213 9.92434 23.3345 9.82975 22.7359 10.2982Z" fill="white"/>
</g>
<path d="M54.3969 25.5L48.8089 18.658V25.5H45.7289V10.144H48.8089V17.03L54.3969 10.144H58.1149L51.7789 17.756L58.2909 25.5H54.3969ZM63.3968 15.204C63.7928 14.5587 64.3062 14.0527 64.9368 13.686C65.5822 13.3193 66.3155 13.136 67.1368 13.136V16.37H66.3228C65.3548 16.37 64.6215 16.5973 64.1228 17.052C63.6388 17.5067 63.3968 18.2987 63.3968 19.428V25.5H60.3168V13.312H63.3968V15.204ZM68.4194 19.362C68.4194 18.13 68.6614 17.0373 69.1454 16.084C69.644 15.1307 70.3114 14.3973 71.1474 13.884C71.998 13.3707 72.944 13.114 73.9854 13.114C74.8947 13.114 75.6867 13.2973 76.3614 13.664C77.0507 14.0307 77.6007 14.4927 78.0114 15.05V13.312H81.1134V25.5H78.0114V23.718C77.6154 24.29 77.0654 24.7667 76.3614 25.148C75.672 25.5147 74.8727 25.698 73.9634 25.698C72.9367 25.698 71.998 25.434 71.1474 24.906C70.3114 24.378 69.644 23.6373 69.1454 22.684C68.6614 21.716 68.4194 20.6087 68.4194 19.362ZM78.0114 19.406C78.0114 18.658 77.8647 18.02 77.5714 17.492C77.278 16.9493 76.882 16.5387 76.3834 16.26C75.8847 15.9667 75.3494 15.82 74.7774 15.82C74.2054 15.82 73.6774 15.9593 73.1934 16.238C72.7094 16.5167 72.3134 16.9273 72.0054 17.47C71.712 17.998 71.5654 18.6287 71.5654 19.362C71.5654 20.0953 71.712 20.7407 72.0054 21.298C72.3134 21.8407 72.7094 22.2587 73.1934 22.552C73.692 22.8453 74.22 22.992 74.7774 22.992C75.3494 22.992 75.8847 22.8527 76.3834 22.574C76.882 22.2807 77.278 21.87 77.5714 21.342C77.8647 20.7993 78.0114 20.154 78.0114 19.406ZM83.3295 19.406C83.3295 18.1447 83.5862 17.0447 84.0995 16.106C84.6128 15.1527 85.3242 14.4193 86.2335 13.906C87.1428 13.378 88.1842 13.114 89.3575 13.114C90.8682 13.114 92.1148 13.4953 93.0975 14.258C94.0948 15.006 94.7622 16.062 95.0995 17.426H91.7775C91.6015 16.898 91.3008 16.4873 90.8755 16.194C90.4648 15.886 89.9515 15.732 89.3355 15.732C88.4555 15.732 87.7588 16.0547 87.2455 16.7C86.7322 17.3307 86.4755 18.2327 86.4755 19.406C86.4755 20.5647 86.7322 21.4667 87.2455 22.112C87.7588 22.7427 88.4555 23.058 89.3355 23.058C90.5822 23.058 91.3962 22.5007 91.7775 21.386H95.0995C94.7622 22.706 94.0948 23.7547 93.0975 24.532C92.1002 25.3093 90.8535 25.698 89.3575 25.698C88.1842 25.698 87.1428 25.4413 86.2335 24.928C85.3242 24.4 84.6128 23.6667 84.0995 22.728C83.5862 21.7747 83.3295 20.6673 83.3295 19.406ZM104.572 25.5L100.436 20.308V25.5H97.3559V9.22H100.436V18.482L104.528 13.312H108.532L103.164 19.428L108.576 25.5H104.572ZM113.284 10.144V25.5H110.204V10.144H113.284ZM123.081 13.136C124.533 13.136 125.706 13.598 126.601 14.522C127.495 15.4313 127.943 16.7073 127.943 18.35V25.5H124.863V18.768C124.863 17.8 124.621 17.0593 124.137 16.546C123.653 16.018 122.993 15.754 122.157 15.754C121.306 15.754 120.631 16.018 120.133 16.546C119.649 17.0593 119.407 17.8 119.407 18.768V25.5H116.327V13.312H119.407V14.83C119.817 14.302 120.338 13.8913 120.969 13.598C121.614 13.29 122.318 13.136 123.081 13.136ZM134.458 15.842V21.738C134.458 22.1487 134.553 22.4493 134.744 22.64C134.949 22.816 135.286 22.904 135.756 22.904H137.186V25.5H135.25C132.654 25.5 131.356 24.2387 131.356 21.716V15.842H129.904V13.312H131.356V10.298H134.458V13.312H137.186V15.842H134.458ZM150.731 19.142C150.731 19.582 150.701 19.978 150.643 20.33H141.733C141.806 21.21 142.114 21.8993 142.657 22.398C143.199 22.8967 143.867 23.146 144.659 23.146C145.803 23.146 146.617 22.6547 147.101 21.672H150.423C150.071 22.8453 149.396 23.8133 148.399 24.576C147.401 25.324 146.177 25.698 144.725 25.698C143.551 25.698 142.495 25.4413 141.557 24.928C140.633 24.4 139.907 23.6593 139.379 22.706C138.865 21.7527 138.609 20.6527 138.609 19.406C138.609 18.1447 138.865 17.0373 139.379 16.084C139.892 15.1307 140.611 14.3973 141.535 13.884C142.459 13.3707 143.522 13.114 144.725 13.114C145.883 13.114 146.917 13.3633 147.827 13.862C148.751 14.3607 149.462 15.072 149.961 15.996C150.474 16.9053 150.731 17.954 150.731 19.142ZM147.541 18.262C147.526 17.47 147.24 16.8393 146.683 16.37C146.125 15.886 145.443 15.644 144.637 15.644C143.874 15.644 143.229 15.8787 142.701 16.348C142.187 16.8027 141.872 17.4407 141.755 18.262H147.541ZM156.059 15.204C156.455 14.5587 156.968 14.0527 157.599 13.686C158.244 13.3193 158.978 13.136 159.799 13.136V16.37H158.985C158.017 16.37 157.284 16.5973 156.785 17.052C156.301 17.5067 156.059 18.2987 156.059 19.428V25.5H152.979V13.312H156.059V15.204ZM166.955 22.662L170.035 13.312H173.313L168.803 25.5H165.063L160.575 13.312H163.875L166.955 22.662ZM176.605 11.86C176.063 11.86 175.608 11.6913 175.241 11.354C174.889 11.002 174.713 10.5693 174.713 10.056C174.713 9.54267 174.889 9.11733 175.241 8.78C175.608 8.428 176.063 8.252 176.605 8.252C177.148 8.252 177.595 8.428 177.947 8.78C178.314 9.11733 178.497 9.54267 178.497 10.056C178.497 10.5693 178.314 11.002 177.947 11.354C177.595 11.6913 177.148 11.86 176.605 11.86ZM178.123 13.312V25.5H175.043V13.312H178.123ZM192.496 19.142C192.496 19.582 192.467 19.978 192.408 20.33H183.498C183.572 21.21 183.88 21.8993 184.422 22.398C184.965 22.8967 185.632 23.146 186.424 23.146C187.568 23.146 188.382 22.6547 188.866 21.672H192.188C191.836 22.8453 191.162 23.8133 190.164 24.576C189.167 25.324 187.942 25.698 186.49 25.698C185.317 25.698 184.261 25.4413 183.322 24.928C182.398 24.4 181.672 23.6593 181.144 22.706C180.631 21.7527 180.374 20.6527 180.374 19.406C180.374 18.1447 180.631 17.0373 181.144 16.084C181.658 15.1307 182.376 14.3973 183.3 13.884C184.224 13.3707 185.288 13.114 186.49 13.114C187.649 13.114 188.683 13.3633 189.592 13.862C190.516 14.3607 191.228 15.072 191.726 15.996C192.24 16.9053 192.496 17.954 192.496 19.142ZM189.306 18.262C189.292 17.47 189.006 16.8393 188.448 16.37C187.891 15.886 187.209 15.644 186.402 15.644C185.64 15.644 184.994 15.8787 184.466 16.348C183.953 16.8027 183.638 17.4407 183.52 18.262H189.306ZM211.641 13.312L208.077 25.5H204.755L202.533 16.986L200.311 25.5H196.967L193.381 13.312H196.505L198.661 22.596L200.993 13.312H204.249L206.537 22.574L208.693 13.312H211.641Z" fill="#4745D2"/>
<defs>
<clipPath id="clip0_3203_944">
<rect width="36" height="36" fill="white"/>
</clipPath>
</defs>
</svg>
