<svg width="16" height="16" viewBox="0 0 16 16" fill="none" xmlns="http://www.w3.org/2000/svg">
<path d="M5.78016 15.1666H1.3335C1.06016 15.1666 0.833496 14.94 0.833496 14.6666V10.6666C0.833496 9.65331 1.6535 8.83331 2.66683 8.83331H5.78016C6.05349 8.83331 6.28016 9.05998 6.28016 9.33331V14.6666C6.28016 14.94 6.05349 15.1666 5.78016 15.1666ZM1.8335 14.1666H5.28016V9.83331H2.66683C2.20683 9.83331 1.8335 10.2066 1.8335 10.6666V14.1666Z" fill="#4745D2"/>
<path d="M10.2201 15.1667H5.77344C5.5001 15.1667 5.27344 14.94 5.27344 14.6667V8.00002C5.27344 6.98669 6.09344 6.16669 7.10677 6.16669H8.88677C9.90011 6.16669 10.7201 6.98669 10.7201 8.00002V14.6667C10.7201 14.94 10.5001 15.1667 10.2201 15.1667ZM6.2801 14.1667H9.72677V8.00002C9.72677 7.54002 9.35344 7.16669 8.89344 7.16669H7.11344C6.65344 7.16669 6.2801 7.54002 6.2801 8.00002V14.1667Z" fill="#4745D2"/>
<path d="M14.6669 15.1666H10.2202C9.94688 15.1666 9.72021 14.94 9.72021 14.6666V11.3333C9.72021 11.06 9.94688 10.8333 10.2202 10.8333H13.3335C14.3469 10.8333 15.1669 11.6533 15.1669 12.6666V14.6666C15.1669 14.94 14.9402 15.1666 14.6669 15.1666ZM10.7202 14.1666H14.1669V12.6666C14.1669 12.2066 13.7935 11.8333 13.3335 11.8333H10.7202V14.1666Z" fill="#4745D2"/>
<path d="M9.13342 5.56668C8.97342 5.56668 8.77342 5.52 8.54676 5.38666L8.00009 5.06L7.46009 5.38001C6.91342 5.70668 6.55342 5.51334 6.42009 5.42001C6.28676 5.32668 6.00009 5.03334 6.14009 4.42001L6.26676 3.86667L5.81343 3.41334C5.53343 3.13334 5.43342 2.8 5.53342 2.49333C5.63342 2.18667 5.90676 1.97333 6.29342 1.90666L6.87343 1.80667L7.20009 1.15335C7.56009 0.440014 8.43342 0.440014 8.78676 1.15335L9.11342 1.80667L9.69342 1.90666C10.0801 1.97333 10.3601 2.18667 10.4534 2.49333C10.5534 2.8 10.4468 3.13334 10.1734 3.41334L9.72009 3.86667L9.84676 4.42001C9.98676 5.04001 9.70009 5.32668 9.56676 5.42668C9.50676 5.48002 9.35342 5.56668 9.13342 5.56668ZM8.00009 4.05333C8.16009 4.05333 8.32009 4.09335 8.45342 4.17335L8.82676 4.39334L8.74676 4.03333C8.68009 3.75333 8.78009 3.41334 8.98676 3.20667L9.32676 2.86667L8.90676 2.79334C8.64009 2.74667 8.38009 2.55334 8.26009 2.31334L8.00009 1.81334L7.74676 2.31334C7.62676 2.55334 7.36676 2.74667 7.10009 2.79334L6.68009 2.86001L7.02009 3.2C7.22676 3.40667 7.32009 3.74668 7.26009 4.02668L7.18009 4.38666L7.55343 4.16667C7.68009 4.08667 7.84009 4.05333 8.00009 4.05333Z" fill="#4745D2"/>
</svg>
