<svg width="17" height="16" viewBox="0 0 17 16" fill="none" xmlns="http://www.w3.org/2000/svg">
<path d="M10.76 3.47331L11.7 5.35331C11.8266 5.61331 12.1666 5.85997 12.4533 5.91331L14.1533 6.1933C15.24 6.3733 15.4933 7.15997 14.7133 7.94664L13.3866 9.27331C13.1666 9.49331 13.04 9.92664 13.1133 10.24L13.4933 11.88C13.7933 13.1733 13.1 13.68 11.96 13L10.3666 12.0533C10.08 11.88 9.59997 11.88 9.3133 12.0533L7.71996 13C6.57996 13.6733 5.88663 13.1733 6.18663 11.88L6.56664 10.24C6.63997 9.93331 6.5133 9.49998 6.2933 9.27331L4.96664 7.94664C4.18664 7.16664 4.43997 6.37997 5.52664 6.1933L7.22663 5.91331C7.5133 5.86664 7.8533 5.61331 7.97997 5.35331L8.91997 3.47331C9.41997 2.45331 10.2466 2.45331 10.76 3.47331Z" stroke="#4745D2" stroke-width="1.5" stroke-linecap="round" stroke-linejoin="round"/>
<path d="M5.8335 3.33331H1.8335" stroke="#4745D2" stroke-width="1.5" stroke-linecap="round" stroke-linejoin="round"/>
<path d="M3.8335 12.6667H1.8335" stroke="#4745D2" stroke-width="1.5" stroke-linecap="round" stroke-linejoin="round"/>
<path d="M2.50016 8H1.8335" stroke="#4745D2" stroke-width="1.5" stroke-linecap="round" stroke-linejoin="round"/>
</svg>
